<svg xmlns="http://www.w3.org/2000/svg" height="512pt" width="512pt" version="1.1" viewBox="0 0 512 512.002"><path stroke-linejoin="round" d="m384.05 51.751c43.14 0 78.11 34.971 78.11 78.11" transform="matrix(.99984 0 0 .99984 -.10698 0)" stroke="#000" stroke-linecap="round" stroke-miterlimit="10" stroke-width="15" fill="none"/><path d="m179.11 504.3h57.473s265.71 13.711 179.79-263.03l-0.15234 0.18359c50.723-13.621 88.066-59.918 88.066-114.95 0-65.73-53.285-119.02-119.02-119.02-62.047 0-113 47.484-118.51 108.1l-0.23828-0.19922c-7.9922 84.918 48.953 155.85 71.93 201.81 54.945 109.89-72.93 153.86-72.93 153.86z" fill="#8a8a8a"/><path d="m504.29 126.52c0-65.73-53.285-119.02-119.02-119.02-7.5156 0-14.871 0.70312-22 2.0352 55.223 10.316 97.023 58.766 97.023 116.98 0 54.957-37.25 101.2-87.875 114.89 74.203 239.25-114.49 261.3-166.81 262.9h30.973s265.62 13.707 179.83-262.9c50.625-13.688 87.875-59.934 87.875-114.89z" fill="#7b7b7b"/><path d="m121.22 72.402c7.0625-29.078 40.387-47.363 40.387-47.363s21.508 30.371 14.156 60.633z" fill="#c3c3c3"/><path d="m183.63 192.16h0.16406c9.5195-12.688 15.164-28.465 15.164-45.555 0-11.223-2.4531-21.863-6.8164-31.449 19.039-22.227 16.672-56.191 16.672-56.191s-35.457-1.6094-56.922 17.379c-8.8867-3.6523-18.609-5.6797-28.812-5.6797-41.902 0-103.24 33.812-103.24 73.867 0 24.949 36.445 57.789 72.344 71.531-29.691 33.645-20.746 69.602-20.746 69.602h-42.945c-11.594 0-20.992 9.4062-20.992 21.008 0 11.605 9.3984 21.008 20.992 21.008h68.16c-25.082 17.566-41.488 46.695-41.488 79.66 0 20.48 6.3398 39.477 17.148 55.145h-23.707c-11.59 0-20.988 9.4062-20.988 21.008 0 11.605 9.3945 21.012 20.988 21.012h155.8c52.199-1.6211 86.691-59.309 88.641-111.91 2.8906-78.141-42.449-164-109.41-200.43z" fill="#d2d2d2"/><path d="m454.48 129.84c0 9.6523 14.996 9.668 14.996 0 0-47.199-38.398-85.598-85.598-85.598-9.6484 0-9.6641 15 0 15 38.93 0 70.602 31.668 70.602 70.598z"/><path d="m93.984 497h-45.379c-17.355 0-17.402-27.02 0-27.02h23.707c5.9297 0 9.5391-6.8789 6.1719-11.758-9.8906-14.34-15.316-31.055-15.773-48.477 0.17578-0.64062 0.28125-1.3125 0.28125-2.0117 0-49.066 39.918-88.984 88.984-88.984 28.691 0 55.789 13.961 72.48 37.352 5.6094 7.8555 17.824-0.84766 12.207-8.7148-19.5-27.324-51.16-43.637-84.688-43.637-20.617 0-39.855 6.0352-56.039 16.426h-67.445c-17.355 0-17.406-27.02 0-27.02h42.945c4.7539 0 8.4297-4.6797 7.2773-9.3086-0.078125-0.32031-7.6836-32.488 19.09-62.828 3.3711-3.8164 1.8398-10.137-2.9414-11.965-4.1094-1.5742-8.3086-3.4492-12.477-5.5664-8.6016-4.3711-15.414 8.9883-6.7969 13.371 1.5234 0.77344 3.0508 1.5156 4.582 2.2305-16.867 23.41-18.195 46.605-17.316 59.07h-34.363c-15.504 0-28.492 13.008-28.492 28.508 0 15.496 12.988 28.504 28.492 28.504h48.016c-18.324 19.289-28.84 45.078-28.84 72.16 0 16.734 3.9258 32.973 11.441 47.648h-10.504c-15.5 0-28.488 13.008-28.488 28.508 0 15.496 12.988 28.508 28.488 28.508h45.379c9.6523 0 9.668-14.996 0-14.996z"/><path d="m112.16 117.39c-9.6484 0-9.6641 14.996 0 14.996 9.6523 0 9.668-14.996 0-14.996z"/><path d="m511.79 126.52c0-69.762-56.754-126.52-126.51-126.52-31.77 0-62.145 11.824-85.531 33.297-22.695 20.836-36.93 48.973-40.23 79.434-0.23828 0.625-0.39453 1.2812-0.45703 1.9648-6.5508 69.609 29.027 130.16 55.008 174.38 6.6836 11.379 13 22.125 17.68 31.488 14.281 28.566 16.719 54.84 7.2383 78.098-11.035 27.07-36.098 45.148-54.414 55.293 9.6094-18.91 15.203-40.371 15.969-61.078 1.4609-39.41-8.9805-81.922-29.402-119.7-19.203-35.52-46.215-64.844-76.668-83.414 13.297-21.926 15.645-49.543 6.3125-73.426 17.645-24.055 15.621-56.449 15.523-57.883-0.26562-3.8008-3.3359-6.7969-7.1406-6.9727-0.86719-0.039062-12.492-0.48047-26.684 2.5664-4.5547-18.773-14.293-32.688-14.75-33.336-2.2031-3.1094-6.3867-4.0703-9.7266-2.2383-1.3242 0.72266-31.102 17.344-41.793 44.988-20.844 1.5742-44.949 10.012-64.566 22.848-25.344 16.582-39.297 37.262-39.297 58.23 0 13.535 8.6016 29.379 24.223 44.613 6.8945 6.7227 17.375-4.0078 10.473-10.738-12.52-12.207-19.699-24.555-19.699-33.875 0-15.512 11.852-32.16 32.512-45.68 19.508-12.762 43.734-20.688 63.23-20.688 8.9688 0 17.699 1.7227 25.961 5.1172 2.6406 1.0898 5.6797 0.57812 7.8203-1.3203 13.434-11.887 33.746-14.715 44.445-15.352-0.47656 10.367-3.0312 29.859-14.859 43.668-1.8984 2.2188-2.3398 5.332-1.1328 7.9883 10.09 22.145 7.4688 48.68-6.7852 68.398-3.7031 3.4297-2.9062 9.6797 1.5156 12.086 30.883 16.801 58.543 45.762 77.887 81.555 19.168 35.461 28.977 75.238 27.613 112.02-0.9375 25.324-9.7031 51.184-24.051 70.941-10.391 14.312-28.059 31.418-53.98 33.547l-64.539 0.19531c-9.6484 0-9.668 15 0 15 0 0 96.359-0.078125 99.82-0.078125 11.273 0 35.68-0.91797 63.828-7.625 50.863-12.113 89.395-37.582 111.42-73.652 5.0273-8.2383-7.7617-16.066-12.801-7.8164-20.125 32.957-54.348 55.426-101.71 66.789-22.367 5.3633-42.555 6.8477-54.695 7.1953 7.4883-5.2891 14.277-11.758 20.297-19.082 9.0352-3.332 64.066-25.309 83.695-73.328 11.223-27.457 8.6367-57.918-7.6797-90.551-4.9062-9.8164-11.344-20.773-18.164-32.379-26.051-44.336-58.402-99.395-53.188-163.3 0.22266-0.60156 0.36328-1.2383 0.42578-1.8945 2.5078-27.578 15.172-53.125 35.656-71.934 20.613-18.93 47.387-29.352 75.391-29.352 61.488 0 111.52 50.031 111.52 111.52 0 49.836-33.223 93.727-80.988 107.29-5.4531 0.41797-8.8516 6.6914-6.0469 11.465 16.82 54.906 20.566 101.89 11.137 139.66-2.3359 9.3633 12.211 13.008 14.551 3.6328 9.7773-39.148 6.5156-86.945-9.6836-142.15 51.031-17.207 86.027-65.418 86.027-119.89zm-361.27-58.715c-5.8398-2.0391-11.852-3.3984-17.984-4.0898 6.9297-13.172 19.266-23.117 26.645-28.238 2.8633 5.2344 6.7031 13.395 8.8945 22.801-6.0469 2.3164-12.078 5.3984-17.555 9.5273z"/></svg>
